<?xml version="1.0" encoding="UTF-8"?>
<svg version="1.1" xmlns="http://www.w3.org/2000/svg" width="256" height="256">
<path d="M0 0 C0.71380498 -0.00367669 1.42760997 -0.00735338 2.16304541 -0.01114148 C4.54941883 -0.02213404 6.93574865 -0.02601465 9.32214355 -0.02983093 C11.03575782 -0.03609909 12.74937074 -0.0427462 14.46298218 -0.04974365 C20.08725037 -0.07075019 25.71151871 -0.08114506 31.33581543 -0.09111023 C33.27613845 -0.09515951 35.21646133 -0.09927648 37.15678406 -0.10346031 C46.27695151 -0.12250702 55.3971109 -0.13673735 64.51729441 -0.14507228 C75.02304367 -0.15483341 85.52858161 -0.18112576 96.03425646 -0.22157317 C104.16782824 -0.25180607 112.30133971 -0.26654807 120.43496656 -0.26985329 C125.28621273 -0.2721962 130.13723301 -0.28105691 134.98841858 -0.30631447 C139.5587145 -0.32972511 144.12863791 -0.33377662 148.69897842 -0.32355309 C150.36736928 -0.32306071 152.03577929 -0.32929223 153.70411301 -0.34310913 C169.12171753 -0.46354889 181.16400498 1.90506568 192.86706543 12.64717102 C201.06500914 20.98092404 203.91339389 30.89056117 203.95173645 42.34260559 C203.95541314 43.05641057 203.95908983 43.77021556 203.96287793 44.505651 C203.97387049 46.89202442 203.9777511 49.27835424 203.98156738 51.66474915 C203.98783554 53.37836341 203.99448265 55.09197633 204.0014801 56.80558777 C204.02248664 62.42985596 204.03288151 68.0541243 204.04284668 73.67842102 C204.04689596 75.61874404 204.05101293 77.55906692 204.05519676 79.49938965 C204.07424347 88.6195571 204.0884738 97.73971649 204.09680873 106.8599 C204.10656986 117.36564926 204.13286221 127.8711872 204.17330962 138.37686205 C204.20354252 146.51043383 204.21828452 154.6439453 204.22158974 162.77757215 C204.22393265 167.62881832 204.23279336 172.4798386 204.25805092 177.33102417 C204.28146156 181.90132009 204.28551307 186.4712435 204.27528954 191.04158401 C204.27479716 192.70997487 204.28102868 194.37838488 204.29484558 196.0467186 C204.41528534 211.46432312 202.04667077 223.50661057 191.30456543 235.20967102 C182.97081241 243.40761473 173.06117528 246.25599948 161.60913086 246.29434204 C160.89532588 246.29801873 160.18152089 246.30169542 159.44608545 246.30548352 C157.05971203 246.31647608 154.67338221 246.32035669 152.2869873 246.32417297 C150.57337304 246.33044113 148.85976012 246.33708824 147.14614868 246.34408569 C141.52188049 246.36509223 135.89761215 246.3754871 130.27331543 246.38545227 C128.33299241 246.38950155 126.39266953 246.39361852 124.4523468 246.39780235 C115.33217935 246.41684906 106.21201996 246.43107939 97.09183645 246.43941432 C86.58608719 246.44917546 76.08054925 246.47546781 65.5748744 246.51591522 C57.44130262 246.54614812 49.30779115 246.56089011 41.1741643 246.56419533 C36.32291813 246.56653824 31.47189785 246.57539895 26.62071228 246.60065651 C22.05041636 246.62406715 17.48049295 246.62811866 12.91015244 246.61789513 C11.24176158 246.61740275 9.57335157 246.62363427 7.90501785 246.63745117 C-7.51258667 246.75789093 -19.55487412 244.38927636 -31.25793457 233.64717102 C-39.45587828 225.313418 -42.30426303 215.40378087 -42.34260559 203.95173645 C-42.34812062 202.88102897 -42.34812062 202.88102897 -42.35374707 201.78869104 C-42.36473963 199.40231762 -42.36862024 197.0159878 -42.37243652 194.6295929 C-42.37870468 192.91597863 -42.38535179 191.20236572 -42.39234924 189.48875427 C-42.41335578 183.86448608 -42.42375065 178.24021774 -42.43371582 172.61592102 C-42.4377651 170.675598 -42.44188207 168.73527512 -42.4460659 166.79495239 C-42.46511261 157.67478494 -42.47934294 148.55462555 -42.48767787 139.43444204 C-42.49743901 128.92869278 -42.52373136 118.42315484 -42.56417876 107.91747999 C-42.59441167 99.78390821 -42.60915366 91.65039674 -42.61245888 83.51676989 C-42.61480179 78.66552372 -42.6236625 73.81450344 -42.64892006 68.96331787 C-42.6723307 64.39302195 -42.67638221 59.82309854 -42.66615868 55.25275803 C-42.6656663 53.58436717 -42.67189782 51.91595716 -42.68571472 50.24762344 C-42.80615448 34.83001892 -40.43753991 22.78773147 -29.69543457 11.08467102 C-21.36168155 2.88672731 -11.45204442 0.03834256 0 0 Z M53.80456543 50.14717102 C53.52648326 52.67094758 53.52648326 52.67094758 53.60925293 55.59248352 C53.6189209 57.2070343 53.6189209 57.2070343 53.62878418 58.85420227 C53.64554199 59.98213196 53.6622998 61.11006165 53.67956543 62.27217102 C53.68858887 63.40783508 53.6976123 64.54349915 53.70690918 65.71357727 C53.73053445 68.52498401 53.7634753 71.335974 53.80456543 74.14717102 C52.9470166 74.13669739 52.08946777 74.12622375 51.20593262 74.11543274 C48.0153503 74.08128806 44.82486131 74.05624143 41.63415527 74.03730774 C40.25489228 74.02726849 38.87565047 74.01363425 37.49645996 73.99629211 C35.51071403 73.97195348 33.52481093 73.96173847 31.53894043 73.95185852 C30.34494629 73.94138489 29.15095215 73.93091125 27.92077637 73.92012024 C24.94658379 74.1368234 23.30138164 74.5853098 20.80456543 76.14717102 C20.63775434 79.06369276 20.63775434 79.06369276 20.80456543 82.14717102 C22.67615048 84.45177916 22.67615048 84.45177916 25.69372559 84.3742218 C27.50042725 84.35851135 27.50042725 84.35851135 29.34362793 84.34248352 C30.64558105 84.33603821 31.94753418 84.3295929 33.28894043 84.32295227 C34.66915138 84.30624031 36.04935972 84.28931041 37.42956543 84.27217102 C38.81757995 84.26214108 40.20560132 84.25301525 41.59362793 84.24482727 C44.99744569 84.22118965 48.40092049 84.18823969 51.80456543 84.14717102 C51.77918701 84.96121399 51.75380859 85.77525696 51.72766113 86.6139679 C51.70792236 87.68711243 51.68818359 88.76025696 51.66784668 89.86592102 C51.64246826 90.92746399 51.61708984 91.98900696 51.59094238 93.0827179 C51.9978347 98.91964635 55.11806103 102.46066662 59.11706543 106.45967102 C64.36198943 109.75299539 68.5766468 111.14717102 74.80456543 111.14717102 C74.80456543 119.06717102 74.80456543 126.98717102 74.80456543 135.14717102 C72.35019043 135.08529602 69.89581543 135.02342102 67.36706543 134.95967102 C58.15021517 134.89554895 51.51216413 136.20455182 44.31237793 142.25654602 C39.48514568 148.30934501 39.37029568 154.39407782 39.44128418 161.82295227 C39.44078568 162.82932236 39.44028717 163.83569244 39.43977356 164.87255859 C39.44210428 166.98796068 39.4517733 169.10336607 39.46838379 171.21870422 C39.49211601 174.46659375 39.48891978 177.71366913 39.4822998 180.96162415 C39.4878724 183.01957177 39.49497963 185.07751594 39.50378418 187.13545227 C39.50287277 188.10936417 39.50196136 189.08327606 39.50102234 190.08670044 C39.51532036 191.43401497 39.51532036 191.43401497 39.52990723 192.80854797 C39.53681831 193.99599358 39.53681831 193.99599358 39.54386902 195.20742798 C39.63670018 197.38371871 39.63670018 197.38371871 41.80456543 199.14717102 C44.88804369 199.31398211 44.88804369 199.31398211 47.80456543 199.14717102 C49.45743508 196.24153947 50.05426389 194.15940992 50.05993652 190.82514954 C50.07037491 189.55847191 50.07037491 189.55847191 50.08102417 188.26620483 C50.08002716 187.36196274 50.07903015 186.45772064 50.07800293 185.52607727 C50.09828919 183.6022433 50.11913992 181.67841521 50.14050293 179.7545929 C50.16311383 176.72841922 50.17957932 173.70247807 50.1854248 170.67622375 C50.19494861 167.75074998 50.22872049 164.8263176 50.26550293 161.90107727 C50.26045746 160.99885941 50.25541199 160.09664154 50.25021362 159.16708374 C50.31583794 154.97328155 50.44159444 152.72663392 52.71325684 149.10005188 C55.54765328 146.45326958 57.16742844 146.01660735 60.93737793 145.83076477 C61.74304199 145.78887024 62.54870605 145.74697571 63.37878418 145.70381165 C64.22054199 145.66449524 65.0622998 145.62517883 65.92956543 145.58467102 C66.77905762 145.54148743 67.6285498 145.49830383 68.50378418 145.45381165 C70.60384765 145.34762866 72.70418491 145.24688606 74.80456543 145.14717102 C74.79790359 146.11769913 74.79790359 146.11769913 74.79110718 147.10783386 C74.74696618 153.82323505 74.71673755 160.53859524 74.69470215 167.25410461 C74.68462532 169.76258517 74.67096364 172.27105394 74.65368652 174.77949524 C74.62951206 178.3786459 74.61809931 181.97764169 74.60925293 185.57685852 C74.59893036 186.70397247 74.58860779 187.83108643 74.57797241 188.99235535 C74.57782135 190.03328339 74.57767029 191.07421143 74.57751465 192.14668274 C74.57085281 193.52568253 74.57085281 193.52568253 74.5640564 194.93254089 C74.59292951 197.35328878 74.59292951 197.35328878 76.80456543 199.14717102 C79.80456543 199.48050435 79.80456543 199.48050435 82.80456543 199.14717102 C85.01620135 197.35328878 85.01620135 197.35328878 85.04507446 194.93254089 C85.04063324 194.0132077 85.03619202 193.09387451 85.03161621 192.14668274 C85.03146515 191.1057547 85.03131409 190.06482666 85.03115845 188.99235535 C85.02083588 187.86524139 85.01051331 186.73812744 84.99987793 185.57685852 C84.99704803 184.42549408 84.99421814 183.27412964 84.99130249 182.08787537 C84.98007951 178.3992029 84.95497099 174.71077049 84.92956543 171.02217102 C84.91953837 168.52608077 84.91041205 166.02998672 84.90222168 163.53388977 C84.88013327 157.40490118 84.8466349 151.27605325 84.80456543 145.14717102 C87.5352149 145.23447955 90.26272733 145.34139226 92.99206543 145.45967102 C93.76099121 145.48222961 94.52991699 145.50478821 95.32214355 145.5280304 C99.91553249 145.74488567 103.07681242 146.19164557 106.80456543 149.14717102 C108.87327288 152.2502322 109.05814449 152.9568518 109.0916748 156.47920227 C109.10508911 157.35020569 109.11850342 158.22120911 109.13232422 159.11860657 C109.14023987 160.52493347 109.14023987 160.52493347 109.14831543 161.95967102 C109.16293823 162.92493713 109.17756104 163.89020325 109.19262695 164.88471985 C109.25494789 169.0186195 109.29451215 173.1526696 109.33630371 177.28681946 C109.37000592 180.30293008 109.41512686 183.31872207 109.46081543 186.33467102 C109.46873108 187.74099792 109.46873108 187.74099792 109.47680664 189.17573547 C109.49022095 190.04673889 109.50363525 190.91774231 109.51745605 191.81513977 C109.52839294 192.96405701 109.52839294 192.96405701 109.53955078 194.13618469 C109.69555539 196.46166035 109.69555539 196.46166035 111.80456543 199.14717102 C114.80456543 199.56383769 114.80456543 199.56383769 117.80456543 199.14717102 C120.19624996 196.75548649 120.06558253 196.20994186 120.11096191 192.94795227 C120.12694931 192.07944641 120.14293671 191.21094055 120.15940857 190.31611633 C120.16745262 188.9021759 120.16745262 188.9021759 120.17565918 187.45967102 C120.18468765 186.48739563 120.19371613 185.51512024 120.20301819 184.51338196 C120.21755184 182.44879749 120.22641512 180.38416663 120.23010254 178.3195343 C120.24191506 175.18704606 120.29099811 172.05658194 120.3416748 168.92451477 C120.35114888 166.91540976 120.35837919 164.90629268 120.36315918 162.89717102 C120.3826915 161.97073792 120.40222382 161.04430481 120.42234802 160.08979797 C120.3695209 152.3216282 118.14716005 145.44970029 112.52331543 139.89326477 C111.42503418 139.24551086 111.42503418 139.24551086 110.30456543 138.58467102 C109.57237793 138.12963196 108.84019043 137.6745929 108.08581543 137.20576477 C103.02982 134.85957511 97.97014699 135.02152472 92.49206543 135.08467102 C88.68675293 135.11560852 88.68675293 135.11560852 84.80456543 135.14717102 C84.80456543 127.22717102 84.80456543 119.30717102 84.80456543 111.14717102 C89.25956543 110.65217102 89.25956543 110.65217102 93.80456543 110.14717102 C99.71417405 107.73508587 104.14331027 103.62987381 106.89831543 97.85420227 C107.90566124 94.84519088 108.00576712 92.49704134 107.92956543 89.33467102 C107.91151855 88.35885071 107.89347168 87.3830304 107.87487793 86.37763977 C107.8516748 85.64158508 107.82847168 84.9055304 107.80456543 84.14717102 C108.72793701 84.16288147 109.65130859 84.17859192 110.60266113 84.19477844 C114.02996432 84.24591934 117.45686185 84.28352637 120.88439941 84.31196594 C122.36753742 84.3270487 123.85063086 84.34751791 125.33361816 84.37348938 C127.46597288 84.40989718 129.59773778 84.42690175 131.73034668 84.44013977 C133.0133667 84.45585022 134.29638672 84.47156067 135.61828613 84.48774719 C138.75735029 84.41156528 138.75735029 84.41156528 140.73498535 82.79682922 C142.20498754 80.52958321 142.01879477 78.78933289 141.80456543 76.14717102 C138.2119171 73.89982174 135.2531447 73.91516594 131.07019043 73.95185852 C129.12692871 73.96152649 129.12692871 73.96152649 127.14440918 73.97138977 C125.78112524 73.98809909 124.41784399 74.00502897 123.05456543 74.02217102 C121.67566558 74.03220762 120.29675878 74.04133229 118.91784668 74.04951477 C115.54657661 74.07309009 112.17565907 74.10599832 108.80456543 74.14717102 C108.81503906 73.4306134 108.8255127 72.71405579 108.83630371 71.9757843 C108.87777842 68.74128197 108.90386435 65.50683549 108.92956543 62.27217102 C108.95470215 60.58027649 108.95470215 60.58027649 108.98034668 58.85420227 C108.98679199 57.77783508 108.9932373 56.7014679 108.99987793 55.59248352 C109.01035156 54.5974884 109.0208252 53.60249329 109.03161621 52.5773468 C109.04835944 49.96545685 109.04835944 49.96545685 106.80456543 48.14717102 C104.30456543 47.81383769 104.30456543 47.81383769 101.80456543 48.14717102 C99.56077142 49.96545685 99.56077142 49.96545685 99.57751465 52.5773468 C99.58798828 53.57234192 99.59846191 54.56733704 99.60925293 55.59248352 C99.61424805 56.56201965 99.61924316 57.53155579 99.62438965 58.5304718 C99.64259766 59.76523254 99.66080566 60.99999329 99.67956543 62.27217102 C99.72081543 66.19092102 99.76206543 70.10967102 99.80456543 74.14717102 C87.92456543 74.14717102 76.04456543 74.14717102 63.80456543 74.14717102 C63.99206543 63.39717102 63.99206543 63.39717102 64.0748291 60.02705383 C64.08606812 58.70205872 64.08606812 58.70205872 64.09753418 57.35029602 C64.12109985 55.99919739 64.12109985 55.99919739 64.1451416 54.62080383 C63.7356522 51.64664852 62.87792162 50.29174584 60.80456543 48.14717102 C57.32074465 47.63734359 56.33932311 47.61241334 53.80456543 50.14717102 Z M110.80456543 101.14717102 C110.61986531 104.52820928 111.3369839 106.54503878 113.40808105 109.21211243 C115.55733202 111.53806356 117.78079027 113.75542452 120.05456543 115.95967102 C120.81897949 116.73504211 121.58339355 117.51041321 122.37097168 118.3092804 C127.26699313 123.2527356 127.26699313 123.2527356 133.80456543 125.14717102 C135.47303277 123.45221146 135.47303277 123.45221146 136.80456543 121.14717102 C136.31404844 114.82617595 131.89356036 111.57561737 127.61706543 107.33467102 C126.86103027 106.5464093 126.10499512 105.75814758 125.3260498 104.94599915 C124.58290527 104.20156555 123.83976074 103.45713196 123.07409668 102.69013977 C122.39967529 102.00975647 121.72525391 101.32937317 121.03039551 100.62837219 C117.35535623 98.18278008 113.97245119 97.97928526 110.80456543 101.14717102 Z M47.80456543 99.14717102 C42.58475616 103.48387056 37.68928075 108.12804187 32.86706543 112.89717102 C32.28739014 113.46395569 31.70771484 114.03074036 31.11047363 114.61470032 C27.77885403 117.93332246 27.77885403 117.93332246 25.80456543 122.14717102 C27.17624781 124.33755525 27.17624781 124.33755525 28.80456543 126.14717102 C33.61073265 125.68944081 35.91095471 124.67817831 39.32800293 121.28779602 C40.12077637 120.5014679 40.9135498 119.71513977 41.73034668 118.90498352 C42.94270996 117.66361633 42.94270996 117.66361633 44.17956543 116.39717102 C45.01101074 115.58506165 45.84245605 114.77295227 46.69909668 113.93623352 C47.48413574 113.14474915 48.2691748 112.35326477 49.07800293 111.53779602 C49.79391602 110.81624329 50.5098291 110.09469055 51.24743652 109.35127258 C53.12413397 106.69482471 53.33476301 105.33367846 52.80456543 102.14717102 C50.39597829 100.28472722 50.39597829 100.28472722 47.80456543 99.14717102 Z " fill="#4CB6EF" transform="translate(47.1954345703125,4.8528289794921875)"/>
<path d="M0 0 C12.21 0 24.42 0 37 0 C35.83613445 11.63865546 35.83613445 11.63865546 33 15 C28.54645191 17.69705966 24.25602027 17.36764899 19.1875 17.375 C18.31029297 17.39949219 17.43308594 17.42398438 16.52929688 17.44921875 C10.48766708 17.47633152 6.93298122 16.53660823 2 13 C-0.81917656 8.58737582 0 5.66309587 0 0 Z " fill="#4CB6F0" transform="translate(109,89)"/>
</svg>
